<svg width="18" height="18" viewBox="0 0 18 18" fill="none" xmlns="http://www.w3.org/2000/svg">
<path d="M12.6337 10.6665C12.7003 10.1165 12.7503 9.5665 12.7503 8.99984C12.7503 8.43317 12.7003 7.88317 12.6337 7.33317H15.4503C15.5837 7.8665 15.667 8.42484 15.667 8.99984C15.667 9.57484 15.5837 10.1332 15.4503 10.6665M11.1587 15.2998C11.6587 14.3748 12.042 13.3748 12.3087 12.3332H14.767C13.9596 13.7234 12.6788 14.7765 11.1587 15.2998ZM10.9503 10.6665H7.05033C6.96699 10.1165 6.91699 9.5665 6.91699 8.99984C6.91699 8.43317 6.96699 7.87484 7.05033 7.33317H10.9503C11.0253 7.87484 11.0837 8.43317 11.0837 8.99984C11.0837 9.5665 11.0253 10.1165 10.9503 10.6665ZM9.00033 15.6332C8.30866 14.6332 7.75033 13.5248 7.40866 12.3332H10.592C10.2503 13.5248 9.69199 14.6332 9.00033 15.6332ZM5.66699 5.6665H3.23366C4.03271 4.27252 5.31265 3.21774 6.83366 2.69984C6.33366 3.62484 5.95866 4.62484 5.66699 5.6665ZM3.23366 12.3332H5.66699C5.95866 13.3748 6.33366 14.3748 6.83366 15.2998C5.31585 14.7762 4.0377 13.7229 3.23366 12.3332ZM2.55033 10.6665C2.41699 10.1332 2.33366 9.57484 2.33366 8.99984C2.33366 8.42484 2.41699 7.8665 2.55033 7.33317H5.36699C5.30033 7.88317 5.25033 8.43317 5.25033 8.99984C5.25033 9.5665 5.30033 10.1165 5.36699 10.6665M9.00033 2.35817C9.69199 3.35817 10.2503 4.47484 10.592 5.6665H7.40866C7.75033 4.47484 8.30866 3.35817 9.00033 2.35817ZM14.767 5.6665H12.3087C12.0478 4.63439 11.6616 3.63808 11.1587 2.69984C12.692 3.22484 13.967 4.28317 14.767 5.6665ZM9.00033 0.666504C4.39199 0.666504 0.666992 4.4165 0.666992 8.99984C0.666992 11.21 1.54497 13.3296 3.10777 14.8924C3.88159 15.6662 4.80025 16.28 5.8113 16.6988C6.82234 17.1176 7.90598 17.3332 9.00033 17.3332C11.2105 17.3332 13.3301 16.4552 14.8929 14.8924C16.4557 13.3296 17.3337 11.21 17.3337 8.99984C17.3337 7.90549 17.1181 6.82185 16.6993 5.81081C16.2805 4.79976 15.6667 3.8811 14.8929 3.10728C14.1191 2.33346 13.2004 1.71963 12.1894 1.30084C11.1783 0.882052 10.0947 0.666504 9.00033 0.666504Z" fill="white"/>
</svg>
